<svg width="18" height="17" viewBox="0 0 18 17" fill="none" xmlns="http://www.w3.org/2000/svg">
<path d="M16.3414 5.50113L11.6364 5.0589C11.3398 5.0321 11.0837 4.84448 10.9623 4.56306L9.27717 0.50254C9.00755 -0.167513 8.05037 -0.167513 7.78074 0.50254L6.10905 4.56306C6.0012 4.84448 5.73158 5.0321 5.43499 5.0589L0.729989 5.50113C0.0289576 5.56814 -0.254151 6.43921 0.271622 6.90825L3.81722 10.0039C4.0464 10.2049 4.14077 10.4997 4.07337 10.7946L3.00834 15.1365C2.84656 15.8199 3.58804 16.3828 4.20818 16.021L8.13126 13.7294C8.3874 13.582 8.69748 13.582 8.95362 13.7294L12.8767 16.021C13.4968 16.3828 14.2383 15.8334 14.0765 15.1365L13.025 10.7946C12.9576 10.4997 13.052 10.2049 13.2811 10.0039L16.8267 6.90825C17.339 6.43921 17.0424 5.56814 16.3414 5.50113Z" fill="#FC9B09"/>
</svg>
